# xmcd
#
# Track frame offsets: 
#        150
#        17006
#        27863
#        40139
#        58255
#        74781
#        88489
#        107611
#        124578
#        140118
#        151623
#        171737
#
# Disc length: 2563 seconds
#
# Revision: 0
# Processed by: cddbd v1.5.2PL0 Copyright (c) Steve Scherf et al.
# Submitted via: ExactAudioCopy v1.1
#
DISCID=ae0a010c
DTITLE=Discovery of Honey - Pert Near Sandstone
DYEAR=2016
DGENRE=Bluegrass
TTITLE0=Bloom Again
TTITLE1=Nothing I can do
TTITLE2=Rattlesnake
TTITLE3=Don't need you
TTITLE4=Animal Instinct
TTITLE5=Uncover me
TTITLE6=Enough said
TTITLE7=Bay Road
TTITLE8=Getaway
TTITLE9=Hard Times Pass Me By
TTITLE10=Again and again
TTITLE11=Biting my Nails
EXTD=
EXTT0=
EXTT1=
EXTT2=
EXTT3=
EXTT4=
EXTT5=
EXTT6=
EXTT7=
EXTT8=
EXTT9=
EXTT10=
EXTT11=
PLAYORDER=
